<svg width="81" height="45" viewBox="0 0 81 45" fill="none" xmlns="http://www.w3.org/2000/svg">
<path d="M6.125 32.5C6.08333 32.5 6.04167 32.625 6 32.875C5.95833 33.125 5.89583 33.4375 5.8125 33.8125C5.77083 34.1875 5.70833 34.5625 5.625 34.9375C5.58333 35.3125 5.54167 35.625 5.5 35.875C5.45833 36.0417 5.41667 36.3958 5.375 36.9375C5.33333 37.4375 5.27083 37.9792 5.1875 38.5625C5.14583 39.1458 5.10417 39.6875 5.0625 40.1875C5.02083 40.6875 5 41.0625 5 41.3125C4.95833 41.3542 4.875 41.4375 4.75 41.5625C4.625 41.6875 4.54167 41.7917 4.5 41.875C4.41667 41.875 4.35417 41.875 4.3125 41.875H4.1875H4C3.95833 41.875 3.91667 41.875 3.875 41.875C3.79167 41.7917 3.60417 41.6042 3.3125 41.3125C3.02083 41.0208 2.85417 40.8333 2.8125 40.75C2.72917 40.4167 2.60417 39.8333 2.4375 39C2.3125 38.1667 2.14583 37.2917 1.9375 36.375C1.77083 35.4583 1.60417 34.5833 1.4375 33.75C1.3125 32.9167 1.20833 32.3333 1.125 32V31.5C1.125 31.2083 1.10417 30.6458 1.0625 29.8125C1.0625 28.9792 1.04167 28 1 26.875C0.958333 25.75 0.916667 24.5625 0.875 23.3125C0.833333 22.0625 0.791667 20.875 0.75 19.75C0.75 18.625 0.729167 17.6458 0.6875 16.8125C0.645833 15.9792 0.625 15.4167 0.625 15.125V14.75C0.625 13.0833 0.916667 11.4375 1.5 9.8125C2.125 8.14583 2.95833 6.64583 4 5.3125C5.08333 3.97917 6.35417 2.89583 7.8125 2.0625C9.3125 1.22917 10.9375 0.8125 12.6875 0.8125C13.6458 0.8125 14.5833 1 15.5 1.375C16.4167 1.75 17.2292 2.25 17.9375 2.875C18.6458 3.5 19.2083 4.25 19.625 5.125C20.0833 6 20.3125 6.9375 20.3125 7.9375C20.3125 9.39583 19.9583 10.7917 19.25 12.125C18.5417 13.4583 17.6458 14.7083 16.5625 15.875C15.5208 17.0417 14.375 18.1458 13.125 19.1875C11.9167 20.2292 10.7708 21.2083 9.6875 22.125C8.64583 23.0417 7.77083 23.9167 7.0625 24.75C6.35417 25.5833 6 26.375 6 27.125C6 27.7083 6.25 28.375 6.75 29.125C7.29167 29.8333 7.95833 30.5833 8.75 31.375C9.58333 32.125 10.5 32.875 11.5 33.625C12.5 34.3333 13.4792 35.0208 14.4375 35.6875C15.4375 36.3125 16.3542 36.875 17.1875 37.375C18.0208 37.875 18.6667 38.25 19.125 38.5C19.2917 38.625 19.625 38.8125 20.125 39.0625C20.625 39.3125 21.1667 39.5833 21.75 39.875C22.375 40.1667 22.9375 40.4583 23.4375 40.75C23.9792 41 24.375 41.1875 24.625 41.3125C25 41.4375 25.4792 41.5417 26.0625 41.625C26.6875 41.6667 27.3125 41.7292 27.9375 41.8125C28.5625 41.8958 29.0833 42.0417 29.5 42.25C29.9583 42.4167 30.1875 42.7292 30.1875 43.1875C30.1875 43.2292 30.1667 43.2708 30.125 43.3125C30.125 43.3125 30.125 43.3333 30.125 43.375V43.5C30.0417 43.5417 29.9375 43.625 29.8125 43.75C29.6875 43.875 29.5833 43.9583 29.5 44C29.4583 44 29.3333 44 29.125 44C28.9583 44 28.7708 44 28.5625 44C28.3542 44.0417 28.1458 44.0625 27.9375 44.0625C27.7708 44.0625 27.6458 44.0625 27.5625 44.0625C25.6458 44.0625 23.7292 43.6875 21.8125 42.9375C19.8958 42.1458 18.0417 41.1875 16.25 40.0625C14.4583 38.8958 12.75 37.6458 11.125 36.3125C9.5 34.9792 8 33.7083 6.625 32.5H6.125ZM4.9375 11.125C4.9375 12 4.91667 12.9375 4.875 13.9375C4.83333 14.8958 4.8125 15.8542 4.8125 16.8125C4.85417 17.7708 4.95833 18.7083 5.125 19.625C5.33333 20.5417 5.66667 21.3958 6.125 22.1875C6.5 21.9375 7.0625 21.5208 7.8125 20.9375C8.5625 20.3125 9.375 19.6042 10.25 18.8125C11.1667 17.9792 12.0833 17.0833 13 16.125C13.9583 15.1667 14.8125 14.2292 15.5625 13.3125C16.3125 12.3542 16.9375 11.4375 17.4375 10.5625C17.9375 9.6875 18.1875 8.9375 18.1875 8.3125C18.1875 7.35417 18 6.58333 17.625 6C17.25 5.375 16.7708 4.89583 16.1875 4.5625C15.6042 4.1875 14.9375 3.9375 14.1875 3.8125C13.4375 3.6875 12.6667 3.625 11.875 3.625C9.5 3.625 7.75 4.3125 6.625 5.6875C5.5 7.0625 4.9375 8.875 4.9375 11.125ZM46.375 36.375C45.75 37.125 45.0208 37.9167 44.1875 38.75C43.3958 39.5833 42.5208 40.3542 41.5625 41.0625C40.6458 41.7708 39.6667 42.375 38.625 42.875C37.625 43.3333 36.5833 43.5625 35.5 43.5625C33.2917 43.5625 32.1875 42.5 32.1875 40.375C32.1875 39.5 32.5417 38.3542 33.25 36.9375C34 35.4792 34.9583 33.9583 36.125 32.375C37.2917 30.7917 38.5833 29.2708 40 27.8125C41.4167 26.3125 42.8333 25.0833 44.25 24.125C45.6667 23.125 46.9583 22.5 48.125 22.25C49.3333 22 50.3125 22.3542 51.0625 23.3125C51.0625 24.4375 50.9792 25.5625 50.8125 26.6875C50.6458 27.8125 50.4792 28.9375 50.3125 30.0625C50.1458 31.1458 49.9792 32.2292 49.8125 33.3125C49.6458 34.3958 49.5625 35.5 49.5625 36.625C49.5625 36.875 49.5833 37.2708 49.625 37.8125C49.7083 38.3125 49.8125 38.8333 49.9375 39.375C50.1042 39.875 50.3125 40.3333 50.5625 40.75C50.8125 41.125 51.1458 41.3125 51.5625 41.3125C52.5625 41.3125 53.375 41.1875 54 40.9375C54.6667 40.6875 55.2292 40.3958 55.6875 40.0625C56.1875 39.6875 56.6042 39.2708 56.9375 38.8125C57.3125 38.3542 57.6875 37.8958 58.0625 37.4375C58.4792 36.9792 58.9375 36.5417 59.4375 36.125C59.9375 35.7083 60.5833 35.375 61.375 35.125C61.375 35.125 61.375 35.1875 61.375 35.3125C61.375 35.4375 61.375 35.5417 61.375 35.625C61.375 36.6667 61.0625 37.7083 60.4375 38.75C59.8125 39.75 59.0208 40.6458 58.0625 41.4375C57.1042 42.2292 56.0208 42.875 54.8125 43.375C53.6458 43.8333 52.5 44.0625 51.375 44.0625C50.4167 44.0625 49.6458 43.7917 49.0625 43.25C48.4792 42.7083 48 42.0625 47.625 41.3125C47.2917 40.5625 47.0417 39.75 46.875 38.875C46.7083 37.9583 46.5417 37.125 46.375 36.375ZM47.5 28.1875C47.9167 26.8125 48.0625 25.875 47.9375 25.375C47.8542 24.875 47.5625 24.6875 47.0625 24.8125C46.5625 24.8958 45.9167 25.25 45.125 25.875C44.3333 26.4583 43.4792 27.1875 42.5625 28.0625C41.6458 28.8958 40.7292 29.8333 39.8125 30.875C38.8958 31.9167 38.0417 32.9167 37.25 33.875C36.4583 34.7917 35.8125 35.625 35.3125 36.375C34.8125 37.125 34.5 37.6667 34.375 38C34.125 38.9583 34.0833 39.6875 34.25 40.1875C34.4583 40.6875 34.75 41.0417 35.125 41.25C35.5417 41.4167 35.9792 41.4375 36.4375 41.3125C36.9375 41.1875 37.3542 41 37.6875 40.75C38.3958 40.125 39.2917 39.2917 40.375 38.25C41.4583 37.1667 42.5 36.0208 43.5 34.8125C44.5417 33.6042 45.4375 32.4167 46.1875 31.25C46.9375 30.0417 47.375 29.0208 47.5 28.1875ZM67.375 41.875C66.9583 40.9583 66.3958 39.7708 65.6875 38.3125C65.0208 36.8125 64.3333 35.2917 63.625 33.75C62.9167 32.1667 62.25 30.6875 61.625 29.3125C61.0417 27.8958 60.5833 26.7917 60.25 26C60.2917 25.8333 60.4375 25.625 60.6875 25.375C60.9792 25.0833 61.2083 24.9167 61.375 24.875C61.8333 24.7917 62.3125 25.0833 62.8125 25.75C63.3125 26.375 63.8125 27.2292 64.3125 28.3125C64.8125 29.3542 65.3333 30.5208 65.875 31.8125C66.4167 33.0625 66.9167 34.25 67.375 35.375C67.875 36.4583 68.3333 37.375 68.75 38.125C69.1667 38.8333 69.5208 39.1875 69.8125 39.1875C69.8542 39.1875 69.8958 39.1875 69.9375 39.1875C69.9792 39.1458 70.0417 39.125 70.125 39.125C70.125 39 70.1875 38.8125 70.3125 38.5625C70.4375 38.2708 70.5417 37.9792 70.625 37.6875C70.75 37.3958 70.8542 37.125 70.9375 36.875C71.0625 36.625 71.1458 36.4583 71.1875 36.375C71.2292 36.2917 71.3542 36.0417 71.5625 35.625C71.8125 35.1667 72.0625 34.6875 72.3125 34.1875C72.5625 33.6875 72.7917 33.2292 73 32.8125C73.2083 32.3542 73.3333 32.0833 73.375 32C73.4583 31.8333 73.5833 31.4792 73.75 30.9375C73.9583 30.3958 74.1875 29.7708 74.4375 29.0625C74.7292 28.3542 75.0208 27.6042 75.3125 26.8125C75.6042 26.0208 75.875 25.2708 76.125 24.5625C76.375 23.8542 76.5833 23.25 76.75 22.75C76.9583 22.2083 77.1042 21.8333 77.1875 21.625C77.4792 20.2917 77.9167 19.2083 78.5 18.375C79.125 17.5 79.6458 16.9792 80.0625 16.8125C80.5208 16.6042 80.75 16.7917 80.75 17.375C80.7917 17.9583 80.3333 19 79.375 20.5C79.2917 20.8333 79.1042 21.3958 78.8125 22.1875C78.5625 22.9375 78.2917 23.75 78 24.625C77.7083 25.5 77.4167 26.3333 77.125 27.125C76.875 27.875 76.7083 28.4167 76.625 28.75C76.4583 29.25 76.2292 29.9792 75.9375 30.9375C75.6875 31.8542 75.375 32.8958 75 34.0625C74.6667 35.1875 74.2917 36.3333 73.875 37.5C73.4583 38.6667 73 39.75 72.5 40.75C72.0417 41.7083 71.5625 42.5 71.0625 43.125C70.5625 43.75 70.0625 44.0625 69.5625 44.0625C69.3125 44.0625 69.0625 43.9792 68.8125 43.8125C68.6042 43.6458 68.3958 43.4583 68.1875 43.25C68.0208 43.0417 67.8542 42.8125 67.6875 42.5625C67.5625 42.2708 67.4583 42.0417 67.375 41.875Z" fill="#0126A8"/>
</svg>
